<svg id="facebook" width="56" height="80" viewBox="0 0 56 80" fill="none" xmlns="http://www.w3.org/2000/svg">
<path id="facebook-f" class="switchable" d="M52 43V35C52 33.3431 50.6568 32 49 32H38C35.7909 32 34 30.2091 34 28V21C34 18.7909 35.7909 17 38 17H48C50.2091 17 52 15.2091 52 13V8C52 5.79086 50.2091 4 48 4H34C26.268 4 20 10.268 20 18V28C20 30.2091 18.2092 32 16 32H7C5.34315 32 4 33.3431 4 35V43C4 44.6569 5.34313 46 6.99998 46H16C17.6569 46 19 47.3431 19 49V72C19 74.2091 20.7909 76 23 76H31C33.2092 76 35 74.2091 35 72V49C35 47.3431 36.3432 46 38 46H49C50.6568 46 52 44.6569 52 43Z" stroke="#3F4A62" stroke-width="7" stroke-linejoin="round"/>
</svg>
