<svg id="twitter" width="80" height="66" viewBox="0 0 80 66" fill="none" xmlns="http://www.w3.org/2000/svg">
<path id="twitter-bird" class="switchable" d="M68.5882 19.1393C66.4706 56.675 34.7059 71.6892 4 55.6025C13.5294 56.675 18.2941 54.5303 26.7647 49.1679C19.3529 49.1679 15.5 49.5 10 41C13.1765 42.0724 16.7059 40.5883 19.8824 39.5158C11.4118 36.2985 6 32.5072 6 25C9.17647 27.145 12.4706 26.6464 14.5882 26.6464C7.70588 20.2118 5.05882 14.8497 8.23529 6.27002C16.7059 15.9221 28.3529 21.2843 40 22.3566C37.8824 6.27004 53.7647 -2.30956 66.4706 9.48728C70.7059 9.48728 72.8235 8.41483 76 6.80616C74.9412 11.6322 72.8235 14.8495 68.5882 19.1393Z" stroke="#3F4A62" stroke-width="7" stroke-linejoin="round"/>
</svg>
