<svg id="controller" width="80" height="64" viewBox="0 0 80 64" fill="none" xmlns="http://www.w3.org/2000/svg">
<path id="controller-shell" class="switchable" d="M40 7.33155C36.0357 7.33155 34.2909 7.24148 31.016 5.93193C29.3568 5.26847 27.223 4.29332 25.5257 4.06579C24.0391 3.86649 22.1401 4.10399 21.0337 4.99884C17.4612 7.88817 12.52 16.4133 9.05499 24.5934C6.82585 29.8558 5.18494 36.5799 4.56297 42.3218C4.02209 47.3152 3.13097 53.3149 6.06031 57.251C6.94451 58.4391 9.01733 59.9955 10.9995 59.9955C12.9816 59.9955 15.1447 60.1158 17.0408 59.1171C22.1269 56.4383 24.2225 55.5697 29.0195 53.9852C32.3842 53.0783 35.7676 53.0522 40 53.0522C44.2324 53.0522 47.6158 53.0783 50.9805 53.9852C55.7775 55.5697 57.8731 56.4383 62.9592 59.1171C64.8553 60.1158 67.0184 59.9955 69.0005 59.9955C70.9827 59.9955 73.0555 58.4391 73.9397 57.251C76.869 53.3149 75.9779 47.3152 75.437 42.3218C74.8151 36.5799 73.1741 29.8558 70.945 24.5934C67.48 16.4133 62.5388 7.88817 58.9663 4.99884C57.8599 4.10399 55.9609 3.86649 54.4743 4.06579C52.777 4.29332 50.6432 5.26847 48.984 5.93193C45.7091 7.24148 43.9643 7.33155 40 7.33155Z" stroke="#3F4A62" stroke-width="7"/>
<circle id="controller-btn-l" cx="49" cy="32" r="3" fill="#276CE5"/>
<circle id="controller-btn-t" cx="56" cy="25" r="3" fill="#276CE5"/>
<circle id="controller-btn-r" cx="63" cy="32" r="3" fill="#276CE5"/>
<circle id="controller-btn-b" cx="56" cy="39" r="3" fill="#276CE5"/>
<path id="controller-dpad" d="M17 32C22 32.5002 23.5002 34 24 39C24.5002 34 26 32.5002 31 32C26 31.5002 24.5002 30 24 25C23.5 30 22 31.5 17 32Z" stroke="#276CE5" stroke-width="6" stroke-linecap="round" stroke-linejoin="round"/>
</svg>
