<svg id="favourite" width="80" height="74" viewBox="0 0 80 74" fill="none" xmlns="http://www.w3.org/2000/svg">
<g filter="url(#dropShadow)">
<path id="favourite-heart" d="M36.4482 9.70926L40 13.2939L43.5518 9.70926C47.3538 5.87205 51.376 4.72923 55.0423 5.05172C58.8585 5.38739 62.7084 7.36111 65.7301 10.4853C68.7491 13.6066 70.6726 17.6016 70.9617 21.5942C71.2405 25.4452 70.0325 29.5898 66.2488 33.4232L40 59.0166L13.7512 33.4232C9.96754 29.5899 8.75951 25.4452 9.03833 21.5942C9.3274 17.6016 11.2509 13.6066 14.2699 10.4853C17.2916 7.36111 21.1415 5.38739 24.9577 5.05172C28.624 4.72923 32.6462 5.87205 36.4482 9.70926Z" fill="#E6ECFA" fill-opacity="20%" stroke="#E6ECFA" stroke-width="10"/>
</g>
<defs>
<filter id="dropShadow" x="0" y="0" width="80" height="74" filterUnits="userSpaceOnUse" color-interpolation-filters="sRGB">
<feFlood flood-opacity="0" result="BackgroundImageFix"/>
<feColorMatrix in="SourceAlpha" type="matrix" values="0 0 0 0 0 0 0 0 0 0 0 0 0 0 0 0 0 0 127 0"/>
<feOffset dy="4"/>
<feGaussianBlur stdDeviation="2"/>
<feColorMatrix type="matrix" values="0 0 0 0 0 0 0 0 0 0 0 0 0 0 0 0 0 0 0.25 0"/>
<feBlend mode="normal" in2="BackgroundImageFix" result="effect1_dropShadow"/>
<feBlend mode="normal" in="SourceGraphic" in2="effect1_dropShadow" result="shape"/>
</filter>
</defs>
</svg>
