<svg id="favourite-g" width="80" height="75" viewBox="0 0 80 75" fill="none" xmlns="http://www.w3.org/2000/svg">
<path id="favourite-g-heart" class="switchable" d="M10.2281 40.9714L40 70L69.7719 40.9714C89.0227 21.5426 59.2508 -9.23871 40 10.19C20.7492 -9.23871 -9.02273 21.5426 10.2281 40.9714Z" stroke="#3F4A62" stroke-width="7"/>
<path id="favourite-g-btns" fill-rule="evenodd" clip-rule="evenodd" d="M56.0004 23C57.6573 23 59.0004 21.6569 59.0004 20C59.0004 18.3431 57.6573 17 56.0004 17C54.3436 17 53.0004 18.3431 53.0004 20C53.0004 21.6569 54.3436 23 56.0004 23ZM49.0004 30C50.6573 30 52.0004 28.6569 52.0004 27C52.0004 25.3431 50.6573 24 49.0004 24C47.3436 24 46.0004 25.3431 46.0004 27C46.0004 28.6569 47.3436 30 49.0004 30ZM66.0004 27C66.0004 28.6569 64.6573 30 63.0004 30C61.3436 30 60.0004 28.6569 60.0004 27C60.0004 25.3431 61.3436 24 63.0004 24C64.6573 24 66.0004 25.3431 66.0004 27ZM56.0004 37C57.6573 37 59.0004 35.6569 59.0004 34C59.0004 32.3431 57.6573 31 56.0004 31C54.3436 31 53.0004 32.3431 53.0004 34C53.0004 35.6569 54.3436 37 56.0004 37Z" fill="#276CE5"/>
<path id="favourite-g-dpad" fill-rule="evenodd" clip-rule="evenodd" d="M33.8279 28.0043C33.9403 27.6886 34.0009 27.3502 34.0004 27.0002C34.0014 26.1822 33.6691 25.427 33.1216 24.8788C32.8112 24.5681 32.4316 24.3238 32.0043 24.1725C31.7632 24.0867 31.5088 24.0311 31.2461 24.0098C28.9126 23.7712 28.2151 23.3475 27.934 23.0664C27.653 22.7853 27.2292 22.0878 26.9907 19.7543C26.9694 19.4917 26.9137 19.2373 26.8279 18.9961C26.6766 18.5689 26.4324 18.1893 26.1216 17.8788C25.8117 17.5685 25.4327 17.3246 25.0063 17.1732C24.69 17.0604 24.3509 16.9996 24.0002 17C23.6496 16.9996 23.3104 17.0604 22.9942 17.1732C22.5677 17.3246 22.1888 17.5685 21.8788 17.8788C21.5685 18.1888 21.3246 18.5677 21.1732 18.9942C21.087 19.2359 21.0311 19.491 21.0098 19.7543C20.7712 22.0878 20.3475 22.7853 20.0664 23.0664C19.7853 23.3475 19.0878 23.7712 16.7543 24.0098C16.0317 24.0684 15.3716 24.3867 14.8788 24.8788C14.5685 25.1888 14.3246 25.5677 14.1732 25.9942C14.0604 26.3104 13.9996 26.6496 14 27.0002C13.999 27.8182 14.3313 28.5735 14.8788 29.1216C15.1893 29.4324 15.5689 29.6766 15.9961 29.8279C16.2373 29.9137 16.4917 29.9694 16.7543 29.9907C19.0878 30.2292 19.7853 30.653 20.0664 30.934C20.3475 31.2151 20.7712 31.9126 21.0098 34.2461C21.0311 34.5088 21.0867 34.7632 21.1725 35.0043C21.3238 35.4316 21.5681 35.8112 21.8788 36.1216C22.1893 36.4324 22.5689 36.6766 22.9961 36.828C23.3118 36.9403 23.6503 37.0009 24.0002 37.0004C24.3502 37.0009 24.6886 36.9403 25.0043 36.828C25.4316 36.6766 25.8112 36.4324 26.1216 36.1216C26.4324 35.8112 26.6766 35.4316 26.828 35.0043C26.9138 34.7632 26.9694 34.5088 26.9907 34.2461C27.2292 31.9126 27.653 31.2151 27.934 30.934C28.2151 30.653 28.9126 30.2292 31.2461 29.9907C31.9687 29.9321 32.6288 29.6138 33.1216 29.1216C33.4324 28.8112 33.6766 28.4316 33.8279 28.0043Z" fill="#276CE5"/>
</svg>
