<svg id="ps-plus" width="76" height="58" viewBox="0 0 76 58" fill="none" xmlns="http://www.w3.org/2000/svg">
<path id="ps-plus-lower" class="switchable fillable" d="M72.3458 21.8345L61.1634 15.379C58.9578 14.1056 55.3817 14.1056 53.176 15.379L42.8914 21.3163C40.1899 22.8758 35.8101 22.8758 33.1086 21.3163L22.824 15.379C20.6183 14.1056 17.0422 14.1056 14.8366 15.379L3.65424 21.8345C1.44859 23.1079 1.44859 25.1723 3.65424 26.4456L13.9389 32.383C16.6403 33.9425 16.6403 36.471 13.9389 38.0306L3.65424 43.9679C1.44859 45.2412 1.44859 47.3057 3.65424 48.579L14.8366 55.0346C17.0422 56.3079 20.6183 56.3079 22.824 55.0346L33.1086 49.0972C35.8101 47.5377 40.1899 47.5377 42.8914 49.0972L53.176 55.0346C55.3817 56.3079 58.9578 56.3079 61.1634 55.0346L72.3458 48.579C74.5514 47.3057 74.5514 45.2412 72.3458 43.9679L62.0611 38.0306C59.3597 36.471 59.3597 33.9425 62.0611 32.383L72.3458 26.4456C74.5514 25.1723 74.5514 23.1079 72.3458 21.8345Z" fill="#3F4A62" fill-opacity="30%" stroke="#3F4A62" stroke-width="3.5" stroke-linejoin="round"/>
<path id="ps-plus-raised" class="switchable fillable" d="M72.3458 9.41056L61.1634 2.95499C58.9578 1.68167 55.3817 1.68167 53.176 2.95499L42.8914 8.89234C40.1899 10.4519 35.8101 10.4519 33.1086 8.89233L22.824 2.95499C20.6183 1.68167 17.0422 1.68167 14.8366 2.95499L3.65424 9.41056C1.44859 10.6839 1.44859 12.7483 3.65424 14.0217L13.9389 19.959C16.6403 21.5186 16.6403 24.0471 13.9389 25.6066L3.65424 31.5439C1.44859 32.8172 1.44859 34.8817 3.65424 36.155L14.8366 42.6106C17.0422 43.8839 20.6183 43.8839 22.824 42.6106L33.1086 36.6733C35.8101 35.1137 40.1899 35.1137 42.8914 36.6733L53.176 42.6106C55.3817 43.8839 58.9578 43.8839 61.1634 42.6106L72.3458 36.155C74.5514 34.8817 74.5514 32.8173 72.3458 31.5439L62.0611 25.6066C59.3597 24.0471 59.3597 21.5186 62.0611 19.959L72.3458 14.0217C74.5514 12.7484 74.5514 10.6839 72.3458 9.41056Z" fill="#3F4A62" fill-opacity="90%" stroke="#3F4A62" stroke-width="3.5" stroke-linejoin="round"/>
<path id="ps-plus-triangle" class="switchable contrast" d="M56.371 27.855L56.371 38.9217M46.7861 33.3884L65.9559 33.3884" stroke="#E6ECFA" stroke-width="3.5" stroke-linecap="round"/>
<ellipse id="ps-plus-circle" class="switchable contrast" rx="5.5337" ry="5.5337" transform="matrix(0.866044 -0.499967 0.866044 0.499967 19.6291 33.3884)" stroke="#E6ECFA" stroke-width="3.5"/>
<path id="ps-plus-cross" class="switchable contrast" d="M14.8366 9.41056L29.2139 12.1772L19.6291 17.7106L14.8366 9.41056Z" stroke="#E6ECFA" stroke-width="3.5" stroke-linecap="round" stroke-linejoin="round"/>
<rect id="ps-plus-square" class="switchable contrast" width="11.0674" height="11.0674" transform="matrix(0.866044 -0.499967 0.866044 0.499967 46.7861 12.1772)" stroke="#E6ECFA" stroke-width="3.5" stroke-linejoin="round"/>
</svg>
