<svg id="server" width="80" height="80" viewBox="0 0 80 80" fill="none" xmlns="http://www.w3.org/2000/svg">
<path id="server-rack-m" class="switchable" d="M76 50.0769C76 54.9231 73 57 66 57H14C7 57 4 54.9231 4 50.0769V45.9231C4 41.0769 7 39 14 39H66C73 39 76 41.0769 76 45.9231V50.0769Z" stroke="#3F4A62" stroke-width="7" stroke-linejoin="round"/>
<path id="server-rack-b" class="switchable" d="M76 69.0769C76 73.9231 73 76 66 76H14C7 76 4 73.9231 4 69.0769V64.9231C4 60.0769 7 58 14 58H66C73 58 76 60.0769 76 64.9231V69.0769Z" stroke="#3F4A62" stroke-width="7" stroke-linejoin="round"/>
<path id="server-rack-t" class="switchable" d="M76 31.0769C76 35.9231 73 38 66 38H14C7 38 4 35.9231 4 31.0769V26.9231C4 22.0769 7 20 14 20H66C73 20 76 22.0769 76 26.9231V31.0769Z" stroke="#3F4A62" stroke-width="7" stroke-linejoin="round"/>
<path id="server-behind" class="switchable" d="M7 21L13 4H67L73 21" stroke="#3F4A62" stroke-width="7" stroke-linejoin="round"/>
<circle id="server-light-b" cx="62" cy="67" r="4" fill="#276CE5"/>
<circle id="server-light-m" cx="62" cy="48" r="4" fill="#276CE5"/>
<circle id="server-light-t" cx="62" cy="29" r="4" fill="#276CE5"/>
</svg>
