<svg id="server" width="80" height="80" viewBox="0 0 80 80" fill="none" xmlns="http://www.w3.org/2000/svg">
<path id="server-rack-t" class="switchable" d="M68 20.6154C68 24.3846 65.6667 26 60.2222 26H19.7778C14.3333 26 12 24.3846 12 20.6154V17.3846C12 13.6154 14.3333 12 19.7778 12H60.2222C65.6667 12 68 13.6154 68 17.3846V20.6154Z" stroke="#3F4A62" stroke-width="7" stroke-linejoin="round"/>
<path id="server-rack-b" class="switchable" d="M68 62.6154C68 66.3846 65.6667 68 60.2222 68H19.7778C14.3333 68 12 66.3846 12 62.6154V59.3846C12 55.6154 14.3333 54 19.7778 54H60.2222C65.6667 54 68 55.6154 68 59.3846V62.6154Z" stroke="#3F4A62" stroke-width="7" stroke-linejoin="round"/>
<path id="server-rack-m" class="switchable" d="M68 41.6154C68 45.3846 65.6667 47 60.2222 47H19.7778C14.3333 47 12 45.3846 12 41.6154V38.3846C12 34.6154 14.3333 33 19.7778 33H60.2222C65.6667 33 68 34.6154 68 38.3846V41.6154Z" stroke="#3F4A62" stroke-width="7" stroke-linejoin="round"/>
<path id="server-case-r" d="M56 76H64C70.5 76 76 70.5 76 64V16C76 9.5 70.5 4 64 4H56" stroke="#276CE5" stroke-width="7" stroke-linecap="round"/>
<path id="server-case-l" d="M24 76H16C9.5 76 4.00001 70.5 4.00001 64L4.00001 16C4.00001 9.5 9.5 4 16 4H24" stroke="#276CE5" stroke-width="7" stroke-linecap="round"/>
</svg>
